<svg xmlns="http://www.w3.org/2000/svg" viewBox="0 0 564.95 116"><defs><style>.cls-1{fill:#fff;}</style></defs><g id="Layer_2" data-name="Layer 2"><g id="Layer_5" data-name="Layer 5"><path class="cls-1" d="M205,81.66c4.84,4.53,10.45,6.31,16.89,5s11-5.43,13.52-11.49c4.28-10.37,8.33-20.84,12.47-31.26q2.48-6.22,4.94-12.47c.55-1.39.77-1.53,2.31-1.53h1.95V18.29c-3,0-5.89,0-8.8,0-3.65,0-5.75,1.54-6.95,5q-3.85,11.22-7.67,22.44c-.5,1.48-.95,3-1.51,4.7-.27-.91-.42-1.61-.68-2.27-3.35-8.59-6.69-17.18-10.08-25.75a5.74,5.74,0,0,0-4.45-3.9,27,27,0,0,0-4.13-.23c-2.15,0-4.31,0-6.49,0V29.91c.81,0,1.53,0,2.25,0a1.45,1.45,0,0,1,1.54,1c.33.78.68,1.55,1,2.32q7.23,16.29,14.45,32.58c.16.35.37.84.24,1.12a38.89,38.89,0,0,1-2.65,5.47,6.76,6.76,0,0,1-9.38,2.26A34.23,34.23,0,0,1,210.26,72Z"/><path class="cls-1" d="M309.56,29.85l.3,0h3.57c1.69,0,1.9.2,1.9,1.88,0,6.21-.05,12.42,0,18.63a31.28,31.28,0,0,0,.62,5.87c.93,4.57,3.18,8.28,7.49,10.44a18.75,18.75,0,0,0,7.9,1.8c6.66.22,12.19-2,16.42-7.3a3.55,3.55,0,0,1,.48-.35c0,.36,0,.61,0,.85a5.32,5.32,0,0,0,4.1,5.3,10.5,10.5,0,0,0,2.68.37c3.64,0,7.28,0,10.92,0h.86V55.94c-1.54,0-3,0-4.47,0a1.08,1.08,0,0,1-1.22-1,8.41,8.41,0,0,1-.06-1.12V18.33H347.82V40.94a19.81,19.81,0,0,1-1.2,6.9c-2,5.45-6.33,8.54-11.83,8.43-3.15-.06-5.06-1.5-5.78-4.58a19,19,0,0,1-.47-4.18c-.05-7.44,0-14.87,0-22.31a6.81,6.81,0,0,0-1.81-5.26,6.93,6.93,0,0,0-5-1.64c-3.83-.05-7.66,0-11.48,0-.24,0-.48.05-.7.07Z"/><path class="cls-1" d="M66.55,19.42v7h5.13c2.1,0,2.69.59,2.69,2.67V59.71H67.08V66.6H90.75V59.67H83.41c0-.29,0-.51,0-.72,0-4.83,0-9.66,0-14.49a20,20,0,0,1,1.52-7.6c2.64-6.47,8.6-11.1,16.14-10.15,3,.38,5.21,1.87,6.09,4.82a19.21,19.21,0,0,1,.9,5.25c.09,9.56,0,19.13.06,28.7V66.6h16.44V59.66h-7.44v-1.2c0-7.66.06-15.31,0-23a31.64,31.64,0,0,0-.78-6.5c-1-4.43-3.39-7.86-7.8-9.53a19.14,19.14,0,0,0-8.22-1.1c-7.72.53-13.42,4.18-17.05,11a.51.51,0,0,1-.17.16c0-1.73,0-3.51,0-5.29,0-2.68-1.47-4.44-4.16-4.64-3-.22-6.08-.15-9.12-.2C68.7,19.4,67.64,19.42,66.55,19.42Z"/><path class="cls-1" d="M411.38,51.56v4.92a7.94,7.94,0,0,0,1.33,4.43,12.66,12.66,0,0,0,5.72,4.56,28.84,28.84,0,0,0,15.91,2A19.18,19.18,0,0,0,444.89,63c4.95-4.42,5.35-12.77.57-17.21a21.92,21.92,0,0,0-7.09-4.31c-3.41-1.33-6.9-2.45-10.26-3.86a14.37,14.37,0,0,1-4.24-2.7,4.86,4.86,0,0,1,1.15-8,13,13,0,0,1,11.88.19A4,4,0,0,1,439.07,31c-.05.82,0,1.66,0,2.45h7.85c0-2.21.17-4.35,0-6.46-.29-3.06-2.38-4.91-5-6.15A25.73,25.73,0,0,0,424.79,19a16.6,16.6,0,0,0-8.54,4.44,11.76,11.76,0,0,0,1.66,17.39c3.35,2.48,7.2,3.85,11,5.32,2.62,1,5.2,2.11,7.74,3.31a5.32,5.32,0,0,1,2.73,3.11c1,2.9-.4,5.61-3.64,6.94a16,16,0,0,1-7.86.87,13.38,13.38,0,0,1-6.52-2.13,4.6,4.6,0,0,1-2.13-4c0-.87,0-1.74,0-2.69H412.2C412,51.49,411.71,51.53,411.38,51.56Z"/><path class="cls-1" d="M289.55,88.53c-.34-.56.11-.5.52-.63a4.83,4.83,0,0,0,1.69-.86,5.56,5.56,0,0,0,.81-1.48c.84,1.15,2.66,2.13,5,2.72A8.21,8.21,0,0,0,298,86.7c0-.65.35-.63.8-.52a2.6,2.6,0,0,0,2.3-.18,1.26,1.26,0,0,1,.88,0c.48.11.94.3,1.41.45l0-.3c.29-.1.59-.32.85-.28.9.17,1.79.43,2.69.66l0-.11-1-.5c.49-.84.53-.84,1.72-.3l-.33.71.23.26,1.1-.9,1.14.32a2.25,2.25,0,0,0-.08-.24,4.55,4.55,0,0,1,1.08-.54,5.28,5.28,0,0,1,1.31.06c0-.06,0-.11,0-.16L311,84.43c1.64-1.57,4.26-1.05,8.25,0l-.68.84a3.4,3.4,0,0,0,1.05.48c1.26.11,2.53.15,3.79.17.19,0,.37-.2.56-.31v-.25c-2.21.7-3.51-.36-4.5-2.1a1,1,0,0,1,1.57-.26c1.9,1.51,3.83,1.94,5.85.25.88.61.49,2.29,2.22,2.33-.71-.53-.38-.83.12-1.06L327.32,83c0-.11.05-.23.07-.34a3.9,3.9,0,0,1,1.32,0,11.81,11.81,0,0,1,1.56.84,1.51,1.51,0,0,0,.65.18c.37,0,.78-.2,1.1-.09,1.1.36,2.16.83,3.23,1.25l1.56.6.09-.21-1.31-1,3.07-.19c.07-.32.06-.66.16-.7,1.14-.44.85,1,1.63,1.2l.52-.4-.48-.62c.05-.09.1-.19.14-.28l7.3,2.17c0-.21,0-.47.06-.72a4.39,4.39,0,0,1-3-1.55,3.83,3.83,0,0,0,.79-.23,1.32,1.32,0,0,1,1.87.37,12.92,12.92,0,0,0,1.48,2.07c.31.3,1,.26,1.44.37.05-.35.11-.7.16-1.05l.11-.43,2.3.47-.32.39,1.34.45.88-1.15a9.9,9.9,0,0,0-1.47-1c-.39-.18-1.16-.33-1.29-.15-.56.75-1.17.38-1.74.19s-1.25-.55-1.88-.83c0-.22.05-.41.07-.58-1.07,0-2.1,0-3.13,0-1.31-.06-2.62-.24-3.93-.25-.74,0-1.37,0-1.75-.77-.5.56-.94,1-1.12-.16,0-.1-.2-.2-.32-.26-.79-.44-1,.28-1.35.64l1.19.93-.21.31c-1.45-.91-3.61-.38-4.4-2.18l-5.25-.47a40.63,40.63,0,0,0-5.25-.47c-1.16,0-2.6-.24-3.34.84l-8.75-1-.36.83c-2.22-1.24-4.81-1.31-5.36-.06l-5.82-.51.72,1.19h-4.93c-2.83,1.13-5.14.48-7.34.54V82a5.09,5.09,0,0,0-.56-.32c-.24-.11-.5-.19-.75-.28l-1.27-.52-.71.49-.39-.55c0,.09,0,.18,0,.27a5.88,5.88,0,0,1-1.26,0c-.54-.11-1.05-.64-1.57.08-.07.1-.54.06-.69-.07-.8-.66-1.43-.12-2.11.19l1.58.09.06.25c-.8.55-1.21,1.61-2.58,1.41A29.59,29.59,0,0,0,274,83l-.28-.66-1.24.38.95,1.25a12.2,12.2,0,0,1-1.73,0c-.67-.12-1.32-.37-2-.5a1.47,1.47,0,0,0-.71.18,12.26,12.26,0,0,1-1.29.56c-.56.17-1.16.21-1.71.39-.14,0-.19.38-.39.84l-2.75,1.15a1.8,1.8,0,0,0-.08-.21l2.65-1.79a1.51,1.51,0,0,0-.11-.22c-1.85.72-4,.25-5.75,1.48l.5.81-2.56.23c-.07,1.3-.88,1.44-2,1.13a1.91,1.91,0,0,0-1.68.45,8.28,8.28,0,0,1-2.93,1.37,34.16,34.16,0,0,1-4.65.59,5.77,5.77,0,0,0-3.87,1.69,2.37,2.37,0,0,1-2.08.76c-.39,0-.77,0-1.38,0l.95,1.22a11.21,11.21,0,0,0-1.21.12,7.16,7.16,0,0,0-1.51.4c-.24.1-.33.55-.57.66-1,.43-2.05.8-3.1,1.19,0,.1.07.27.12.46H233c-.31.26-.46.46-.66.53-1,.32-2,.6-3,.89-.21.06-.55.06-.61.18-.5,1.19-1.73,1.52-2.61,2.23a30.35,30.35,0,0,1-2.8,1.84c-.07.22-.07.48-.19.56a3.5,3.5,0,0,1-.85.35l.75.23c-.09.46-.16.86-.23,1.26l-1.24-.47c-.2.35-.07,1.3-1.12.82,0-.18.08-.32.1-.47s0-.29,0-.44c-.82,0-.94.12-1.22.93-.38,1.1-.68,2.23-2,2.67-.12,0-.12.56-.1.85a5.86,5.86,0,0,0,.26.91l.89.08c-.1.32-.14.77-.26.79a7.76,7.76,0,0,1-1.46,0c-.05.88-.09,1.76-.14,2.52l1,.55-.92,1.14c.09.3.21.67.37,1.15l3.74-.68c-.23-.26-.4-.45-.53-.58.26-.31.6-.53.61-.76,0-.69.5-.76,1-.79,1.14-.07,1.14,0,.79-1l2.28-1.18c-.47-.59-.23-1.15.57-1.29a2,2,0,0,0,1.06-.6c.63-.57.89-2,2.25-1.31.05,0,.17-.17.27-.23.37-.23.74-.45,1.12-.66l1.8-1-1.06-1.4c.76-1,1.5.82,2.38.14l-.59-.36a20.36,20.36,0,0,1,1.75-1.91,3.67,3.67,0,0,1,1.31-.41l.32,1.14a3.3,3.3,0,0,0,.42-.1c-.1-1,.74-.92,1.29-1a15.9,15.9,0,0,1,1.68.09c.58,0,1.15-.09,1.9-.16l-.69-.78a2,2,0,0,1,.33-.11.69.69,0,0,1,.28,0c1.05.43,1,.41,1.88-.2.61-.42,1.29-.74,1.89-1.17s1.41-1.09,2.11-1.64c.05-.22.26-.13.47-.13a21.31,21.31,0,0,0,2.4-.1c.22,0,.49-.4.54-.65s-.25-.43-.44-.61a7,7,0,0,0-.74-.58l.08-.19h2.3c-.14.56-.27,1.09-.43,1.7.91-1.14,2.54-1.45,2.91-.82,1.17-.58,2.33-1.14,3.48-1.72.38-.19.94-.36,1.05-.66.31-.88.8-1.16,1.63-.8a1.31,1.31,0,0,0,.09-.25c-.14-1-.15-.94.77-.68.19.06.47-.11.68-.21s.63-.38,1-.59c0-.09-.08-.31-.13-.57,1.77,0,3.34,1.26,5.26.32l-.67-.34c1.6-.39,3.14-.78,4.69-1.12a1.84,1.84,0,0,1,1,.13c0,.67,1.08,1.13.52,1.84H272c0,.15,0,.3,0,.46a4.83,4.83,0,0,0,1.42,0c.56-.16,1-.58,1.59-.79a9.31,9.31,0,0,1,1.51-.31l.24-.44c.82,1.19,1.51.42,2.27-.25L276.12,90l.42-.93.19.18L278.27,88c.61,1.79,2.2,1.56,3.46,2,1.57.54,2.51-1,4-.91l-1.16-1a.83.83,0,0,1-1.32.3c-.66-.43-1.37-.78-2.15-1.21V85.93a2.72,2.72,0,0,0,2.84.42,6.64,6.64,0,0,1,1.08-.3c.93-.14,1.72,0,2.16,1a3,3,0,0,0,.87.9c.17.55.29.91.36,1.12Z"/><path class="cls-1" d="M372,26.37h5.34c1.92,0,2.54.61,2.54,2.52V59.73h-7V66.6h23V59.7H389c0-.29,0-.47,0-.66,0-4.48-.07-9,0-13.45A23.2,23.2,0,0,1,391.75,35c2.23-4.11,5.52-6.77,10.31-7.19,1.26-.11,2.53,0,3.79,0V19.06a13.86,13.86,0,0,0-10.77,2.69A19.45,19.45,0,0,0,388.63,31a1.51,1.51,0,0,1-.08-.57c0-2.16.07-4.33,0-6.49a4.14,4.14,0,0,0-3.31-4.13,10.13,10.13,0,0,0-2.5-.36c-3.3,0-6.59,0-9.89,0-.27,0-.54,0-.83,0Z"/><path class="cls-1" d="M512.46,7.7V9q0,22.26,0,44.52a23.91,23.91,0,0,0,.41,4.39c.76,4,2.76,7,6.76,8.28a21.31,21.31,0,0,0,9.28.52V59.47c-.86,0-1.71,0-2.54,0-2.75-.06-4.34-1.44-4.72-4.13a20.41,20.41,0,0,1-.19-2.81q0-25.27,0-50.55V.84H504.64V7.7Z"/><path class="cls-1" d="M51.93,59.71V19.49H35.17v6.93h7.7V59.73H35.62v6.86h23.8V59.71Z"/><path class="cls-1" d="M52.18.82H42.79V9.9h9.39Z"/><path class="cls-1" d="M361.79,87l.11-.25c-.81-.93-1.92-.63-2.95-.68,0,.08,0,.15-.05.23Z"/><path class="cls-1" d="M286,87.52v-.29c-.23-.13-.48-.37-.71-.35s-.43.29-.64.46c.17.18.34.51.53.52S285.75,87.65,286,87.52Z"/><path class="cls-1" d="M26.17,0l2.95.4V7.52c-1.21,0-2.38,0-3.55,0a13,13,0,0,0-2.42.26c-3.79.89-5.94,3.57-6.19,7.71-.08,1.25,0,2.5,0,3.86H28.26v7H17V59.67h8.53V66.6H.6V59.73H7.86V26.36H0v-7H7.82c.1-1.93.13-3.74.29-5.55A14.21,14.21,0,0,1,20.14.58C21.33.35,22.53.19,23.72,0Z"/><path class="cls-1" d="M562.16,0,565,.4V7.72c-3.88-.38-7.75-.64-10.44,2.86-2,2.59-1.8,5.69-1.71,8.83h11.36v7H553.63c-.54,0-.88,0-.88.73q0,16.09,0,32.19a3.31,3.31,0,0,0,.08.39h8.53V66.6h-25V59.72h7.26V26.41H536v-7h7.69c.09-1.78.11-3.5.28-5.21a15,15,0,0,1,4.45-9.87A15.49,15.49,0,0,1,557,.4c.92-.15,1.84-.27,2.76-.4Z"/><path class="cls-1" d="M205,81.66,210.26,72a34.23,34.23,0,0,0,3.54,2.61,6.76,6.76,0,0,0,9.38-2.26,38.89,38.89,0,0,0,2.65-5.47c.13-.28-.08-.77-.24-1.12q-7.22-16.31-14.45-32.58c-.34-.77-.69-1.54-1-2.32a1.45,1.45,0,0,0-1.54-1c-.72,0-1.44,0-2.25,0V18.29c2.18,0,4.34,0,6.49,0a27,27,0,0,1,4.13.23,5.74,5.74,0,0,1,4.45,3.9c3.39,8.57,6.73,17.16,10.08,25.75.26.66.41,1.36.68,2.27.56-1.72,1-3.22,1.51-4.7q3.83-11.22,7.67-22.44c1.2-3.48,3.3-5,6.95-5,2.91,0,5.83,0,8.8,0V29.91h-1.95c-1.54,0-1.76.14-2.31,1.53q-2.47,6.24-4.94,12.47c-4.14,10.42-8.19,20.89-12.47,31.26-2.5,6.06-6.95,10.16-13.52,11.49S209.85,86.19,205,81.66Z"/><path class="cls-1" d="M309.56,29.85V18.36c.22,0,.46-.07.7-.07,3.82,0,7.65,0,11.48,0a6.93,6.93,0,0,1,5,1.64,6.81,6.81,0,0,1,1.81,5.26c0,7.44,0,14.87,0,22.31a19,19,0,0,0,.47,4.18c.72,3.08,2.63,4.52,5.78,4.58,5.5.11,9.82-3,11.83-8.43a19.81,19.81,0,0,0,1.2-6.9V18.33h13.29V53.8a8.41,8.41,0,0,0,.06,1.12,1.08,1.08,0,0,0,1.22,1c1.47,0,2.93,0,4.47,0V67.42H366c-3.64,0-7.28,0-10.92,0A10.5,10.5,0,0,1,352.4,67a5.32,5.32,0,0,1-4.1-5.3c0-.24,0-.49,0-.85a3.55,3.55,0,0,0-.48.35c-4.23,5.25-9.76,7.52-16.42,7.3a18.75,18.75,0,0,1-7.9-1.8c-4.31-2.16-6.56-5.87-7.49-10.44a31.28,31.28,0,0,1-.62-5.87c-.07-6.21,0-12.42,0-18.63,0-1.68-.21-1.88-1.9-1.88h-3.57Z"/><path class="cls-1" d="M309.37,41.58c0,8.25-2.32,14.23-7.13,19.13A25.61,25.61,0,0,1,288.13,68c-7.22,1.3-14.13.38-20.44-3.49a24,24,0,0,1-11.85-18.83A24.84,24.84,0,0,1,261.08,27a25.32,25.32,0,0,1,15.37-9.23,28.46,28.46,0,0,1,21.61,3.87C305.1,26.18,309.53,34.19,309.37,41.58Zm-13.31,1.28c-.16-1.14-.22-2.31-.48-3.43-1.15-4.9-4-8.42-8.84-10a12.64,12.64,0,0,0-13.05,2.66c-4.16,3.76-5.24,8.6-4.29,14a13.23,13.23,0,0,0,16.65,10.46C292.12,54.86,296,49.56,296.06,42.86Z"/><path class="cls-1" d="M163.67,26V7.76H155.8V.81h16.83V57.18c0,2,.51,2.52,2.48,2.52h4.27v6.88a3.35,3.35,0,0,1-.54.08c-3.1,0-6.21,0-9.31,0a7.7,7.7,0,0,1-2.13-.33,4.27,4.27,0,0,1-3.2-4.15c0-1.15,0-2.31,0-3.45a.51.51,0,0,0-.2.17c-3.65,6.43-9.34,9.07-16.52,8.89-8.24-.21-14.77-4.83-17.74-12.91-3.13-8.48-3.12-17,.87-25.27,3.4-7,9.25-10.71,17-11.22,6.6-.43,12.07,1.73,15.81,7.44a2,2,0,0,1,.16.33ZM164,43.25c-.19-1.64-.28-3.31-.59-4.93a15.84,15.84,0,0,0-4.56-8.88,12.41,12.41,0,0,0-18.8,2.26c-4.53,7.08-4.4,14.61-.59,22A11.41,11.41,0,0,0,150.41,60a12.37,12.37,0,0,0,11.25-6.77A22,22,0,0,0,164,43.25Z"/><path class="cls-1" d="M66.55,19.42c1.09,0,2.15,0,3.21,0,3,0,6.09,0,9.12.2,2.69.2,4.13,2,4.16,4.64,0,1.78,0,3.56,0,5.29a.51.51,0,0,0,.17-.16c3.63-6.85,9.33-10.5,17.05-11a19.14,19.14,0,0,1,8.22,1.1c4.41,1.67,6.8,5.1,7.8,9.53a31.64,31.64,0,0,1,.78,6.5c.09,7.66,0,15.31,0,23v1.2h7.44V66.6H108.09V65.48c0-9.57,0-19.14-.06-28.7a19.21,19.21,0,0,0-.9-5.25c-.88-3-3.1-4.44-6.09-4.82-7.54-.95-13.5,3.68-16.14,10.15a20,20,0,0,0-1.52,7.6c0,4.83,0,9.66,0,14.49,0,.21,0,.43,0,.72h7.34V66.6H67.08V59.71h7.29V29c0-2.08-.59-2.66-2.69-2.67H66.55Z"/><path class="cls-1" d="M496.16,54.73l3.78,6.69c-1.62,1-3.16,2.16-4.84,3-8.17,4.11-16.56,4.75-25,.94-7.3-3.31-11.64-9.19-13.14-17a26.37,26.37,0,0,1,3.48-19.85A21.68,21.68,0,0,1,476,18.64a22.51,22.51,0,0,1,13,1.44c6.05,2.69,9.35,7.61,10.85,13.89a26.66,26.66,0,0,1,.57,8.77c0,.34-.11.68-.18,1.12H465.71a16.1,16.1,0,0,0,1.17,6c2.4,6,6.89,9.29,13.26,10,5.58.62,10.48-1.21,15-4.37C495.44,55.28,495.76,55,496.16,54.73Zm-4.91-16.66c-.08-.83-.15-1.54-.23-2.26-.9-7.48-7.4-11.88-14.68-9.9-5.55,1.52-8.6,5.39-10,10.76-.11.44-.15.89-.24,1.4Z"/><path class="cls-1" d="M411.38,51.56c.33,0,.57-.07.82-.07h7.06c0,.95,0,1.82,0,2.69a4.6,4.6,0,0,0,2.13,4,13.38,13.38,0,0,0,6.52,2.13,16,16,0,0,0,7.86-.87c3.24-1.33,4.66-4,3.64-6.94a5.32,5.32,0,0,0-2.73-3.11c-2.54-1.2-5.12-2.31-7.74-3.31-3.83-1.47-7.68-2.84-11-5.32a11.76,11.76,0,0,1-1.66-17.39A16.6,16.6,0,0,1,424.79,19a25.73,25.73,0,0,1,17.12,1.84c2.58,1.24,4.67,3.09,5,6.15.21,2.11,0,4.25,0,6.46h-7.85c0-.79,0-1.63,0-2.45a4,4,0,0,0-2.17-3.88A13,13,0,0,0,425,26.91a4.86,4.86,0,0,0-1.15,8,14.37,14.37,0,0,0,4.24,2.7c3.36,1.41,6.85,2.53,10.26,3.86a21.92,21.92,0,0,1,7.09,4.31c4.78,4.44,4.38,12.79-.57,17.21a19.18,19.18,0,0,1-10.55,4.48,28.84,28.84,0,0,1-15.91-2,12.66,12.66,0,0,1-5.72-4.56,7.94,7.94,0,0,1-1.33-4.43Z"/><path class="cls-1" d="M289.55,88.53l-1.09.53c-.07-.21-.19-.57-.36-1.12a3,3,0,0,1-.87-.9c-.44-1-1.23-1.13-2.16-1a6.64,6.64,0,0,0-1.08.3,2.72,2.72,0,0,1-2.84-.42v1.29c.78.43,1.49.78,2.15,1.21a.83.83,0,0,0,1.32-.3l1.16,1c-1.54-.07-2.48,1.45-4,.91-1.26-.44-2.85-.21-3.46-2l-1.54,1.25-.19-.18-.42.93,2.93.74c-.76.67-1.45,1.44-2.27.25l-.24.44a9.31,9.31,0,0,0-1.51.31c-.55.21-1,.63-1.59.79a4.83,4.83,0,0,1-1.42,0c0-.16,0-.31,0-.46h1.57c.56-.71-.49-1.17-.52-1.84a1.84,1.84,0,0,0-1-.13c-1.55.34-3.09.73-4.69,1.12l.67.34c-1.92.94-3.49-.29-5.26-.32.05.26.1.48.13.57-.36.21-.67.42-1,.59s-.49.27-.68.21c-.92-.26-.91-.28-.77.68a1.31,1.31,0,0,1-.09.25c-.83-.36-1.32-.08-1.63.8-.11.3-.67.47-1.05.66-1.15.58-2.31,1.14-3.48,1.72-.37-.63-2-.32-2.91.82.16-.61.29-1.14.43-1.7h-2.3l-.08.19a7,7,0,0,1,.74.58c.19.18.47.44.44.61s-.32.62-.54.65a21.31,21.31,0,0,1-2.4.1c-.21,0-.42-.09-.47.13-.7.55-1.38,1.13-2.11,1.64s-1.28.75-1.89,1.17c-.85.61-.83.63-1.88.2a.69.69,0,0,0-.28,0,2,2,0,0,0-.33.11l.69.78c-.75.07-1.32.15-1.9.16a15.9,15.9,0,0,0-1.68-.09c-.55.08-1.39,0-1.29,1a3.3,3.3,0,0,1-.42.1l-.32-1.14a3.67,3.67,0,0,0-1.31.41,20.36,20.36,0,0,0-1.75,1.91l.59.36c-.88.68-1.62-1.09-2.38-.14l1.06,1.4-1.8,1c-.38.21-.75.43-1.12.66-.1.06-.22.25-.27.23-1.36-.64-1.62.74-2.25,1.31a2,2,0,0,1-1.06.6c-.8.14-1,.7-.57,1.29l-2.28,1.18c.35.92.35.89-.79,1-.45,0-.94.1-1,.79,0,.23-.35.45-.61.76.13.13.3.32.53.58l-3.74.68c-.16-.48-.28-.85-.37-1.15l.92-1.14-1-.55c0-.76.09-1.64.14-2.52a7.76,7.76,0,0,0,1.46,0c.12,0,.16-.47.26-.79l-.89-.08a5.86,5.86,0,0,1-.26-.91c0-.29,0-.81.1-.85,1.31-.44,1.61-1.57,2-2.67.28-.81.4-.89,1.22-.93,0,.15,0,.3,0,.44s-.06.29-.1.47c1.05.48.92-.47,1.12-.82l1.24.47c.07-.4.14-.8.23-1.26l-.75-.23a3.5,3.5,0,0,0,.85-.35c.12-.08.12-.34.19-.56a30.35,30.35,0,0,0,2.8-1.84c.88-.71,2.11-1,2.61-2.23.06-.12.4-.12.61-.18,1-.29,2-.57,3-.89.2-.07.35-.27.66-.53h.62c-.05-.19-.1-.36-.12-.46,1-.39,2.09-.76,3.1-1.19.24-.11.33-.56.57-.66a7.16,7.16,0,0,1,1.51-.4,11.21,11.21,0,0,1,1.21-.12l-.95-1.22c.61,0,1,0,1.38,0a2.37,2.37,0,0,0,2.08-.76,5.77,5.77,0,0,1,3.87-1.69,34.16,34.16,0,0,0,4.65-.59,8.28,8.28,0,0,0,2.93-1.37,1.91,1.91,0,0,1,1.68-.45c1.12.31,1.93.17,2-1.13l2.56-.23-.5-.81c1.75-1.23,3.9-.76,5.75-1.48a1.51,1.51,0,0,1,.11.22l-2.65,1.79a1.8,1.8,0,0,1,.08.21l2.75-1.15c.2-.46.25-.8.39-.84.55-.18,1.15-.22,1.71-.39a12.26,12.26,0,0,0,1.29-.56,1.47,1.47,0,0,1,.71-.18c.67.13,1.32.38,2,.5a12.2,12.2,0,0,0,1.73,0l-.95-1.25,1.24-.38L274,83a29.59,29.59,0,0,1,3.78,0c1.37.2,1.78-.86,2.58-1.41l-.06-.25-1.58-.09c.68-.31,1.31-.85,2.11-.19.15.13.62.17.69.07.52-.72,1-.19,1.57-.08a5.88,5.88,0,0,0,1.26,0c0-.09,0-.18,0-.27l.39.55.71-.49,1.27.52c.25.09.51.17.75.28a5.09,5.09,0,0,1,.56.32v-.8c2.2-.06,4.51.59,7.34-.54h4.93l-.72-1.19,5.82.51c.55-1.25,3.14-1.18,5.36.06l.36-.83,8.75,1c.74-1.08,2.18-.8,3.34-.84a40.63,40.63,0,0,1,5.25.47l5.25.47c.79,1.8,2.95,1.27,4.4,2.18l.21-.31-1.19-.93c.36-.36.56-1.08,1.35-.64.12.06.31.16.32.26.18,1.14.62.72,1.12.16.38.72,1,.77,1.75.77,1.31,0,2.62.19,3.93.25,1,0,2.06,0,3.13,0,0,.17,0,.36-.07.58.63.28,1.24.62,1.88.83s1.18.56,1.74-.19c.13-.18.9,0,1.29.15a9.9,9.9,0,0,1,1.47,1l-.88,1.15-1.34-.45.32-.39-2.3-.47-.11.43c-.05.35-.11.7-.16,1.05-.49-.11-1.13-.07-1.44-.37a12.92,12.92,0,0,1-1.48-2.07,1.32,1.32,0,0,0-1.87-.37,3.83,3.83,0,0,1-.79.23,4.39,4.39,0,0,0,3,1.55c0,.25,0,.51-.06.72l-7.3-2.17c0,.09-.09.19-.14.28l.48.62-.52.4c-.78-.17-.49-1.64-1.63-1.2-.1,0-.09.38-.16.7l-3.07.19,1.31,1-.09.21-1.56-.6c-1.07-.42-2.13-.89-3.23-1.25-.32-.11-.73.09-1.1.09a1.51,1.51,0,0,1-.65-.18,11.81,11.81,0,0,0-1.56-.84,3.9,3.9,0,0,0-1.32,0c0,.11,0,.23-.07.34l1.93,1.61c-.5.23-.83.53-.12,1.06-1.73,0-1.34-1.72-2.22-2.33-2,1.69-4,1.26-5.85-.25a1,1,0,0,0-1.57.26c1,1.74,2.29,2.8,4.5,2.1v.25c-.19.11-.37.32-.56.31-1.26,0-2.53-.06-3.79-.17a3.4,3.4,0,0,1-1.05-.48l.68-.84c-4-1.1-6.61-1.62-8.25,0l1.08.69s0,.1,0,.16a5.28,5.28,0,0,0-1.31-.06,4.55,4.55,0,0,0-1.08.54,2.25,2.25,0,0,1,.08.24l-1.14-.32-1.1.9-.23-.26.33-.71c-1.19-.54-1.23-.54-1.72.3l1,.5,0,.11c-.9-.23-1.79-.49-2.69-.66-.26,0-.56.18-.85.28l0,.3c-.47-.15-.93-.34-1.41-.45a1.26,1.26,0,0,0-.88,0,2.6,2.6,0,0,1-2.3.18c-.45-.11-.77-.13-.8.52a8.21,8.21,0,0,1-.37,1.58c-2.35-.59-4.17-1.57-5-2.72a5.56,5.56,0,0,1-.81,1.48,4.83,4.83,0,0,1-1.69.86C289.66,88,289.21,88,289.55,88.53Zm35-6.2,2.64-.13L326,81c-.1.43-.18.71-.25,1l-1.93-.63-.06.14ZM246.23,97.69c0-1-.89-.29-1.18-.67l-.56.69.2.17Zm-18.82,9h-.61l-.12,1.21a6.17,6.17,0,0,0,.62,0C227.37,107.48,227.38,107.07,227.41,106.66Z"/><path class="cls-1" d="M372,26.37v-6.9c.29,0,.56,0,.83,0,3.3,0,6.59,0,9.89,0a10.13,10.13,0,0,1,2.5.36,4.14,4.14,0,0,1,3.31,4.13c.07,2.16,0,4.33,0,6.49a1.51,1.51,0,0,0,.08.57,19.45,19.45,0,0,1,6.45-9.23,13.86,13.86,0,0,1,10.77-2.69v8.71c-1.26,0-2.53-.09-3.79,0-4.79.42-8.08,3.08-10.31,7.19A23.2,23.2,0,0,0,389,45.59c-.11,4.48,0,9,0,13.45,0,.19,0,.37,0,.66h6.9v6.9h-23V59.73h7V28.9c0-1.91-.62-2.52-2.54-2.52Z"/><path class="cls-1" d="M512.46,7.7h-7.82V.84h16.83V2q0,25.28,0,50.55a20.41,20.41,0,0,0,.19,2.81c.38,2.69,2,4.07,4.72,4.13.83,0,1.68,0,2.54,0v7.27a21.31,21.31,0,0,1-9.28-.52c-4-1.31-6-4.33-6.76-8.28a23.91,23.91,0,0,1-.41-4.39q0-22.26,0-44.52Z"/><path class="cls-1" d="M51.93,59.71h7.49v6.88H35.62V59.73h7.25V26.42h-7.7V19.49H51.93Z"/><path class="cls-1" d="M52.18.82V9.9H42.79V.82Z"/><path class="cls-1" d="M361.79,87l-2.89-.7c0-.08,0-.15.05-.23,1,.05,2.14-.25,2.95.68Z"/><path class="cls-1" d="M286,87.52c-.28.13-.55.35-.82.34s-.36-.34-.53-.52c.21-.17.42-.44.64-.46s.48.22.71.35Z"/></g></g></svg>