<svg xmlns="http://www.w3.org/2000/svg" viewBox="0 0 837.37 379.02"><defs><style>.cls-1,.cls-2{fill:#333092;}.cls-2{stroke:#333092;stroke-linecap:round;stroke-miterlimit:10;stroke-width:1.5px;}.cls-3{fill:none;}</style></defs><g id="Layer_2" data-name="Layer 2"><g id="Layer_1-2" data-name="Layer 1"><path class="cls-1" d="M368.77,127.28v12.87q0,4,1.09,5.34c.72.87,2.39,1.51,5,1.93.68.12,1,.37,1,.74s-.26.69-.84.67l-1.9-.14c-.77-.07-2.17-.11-4.18-.11l-2.81,0-2.5.07c-1,0-1.63,0-1.93,0-1.25.12-1.95.18-2.11.18-.78,0-1.16-.27-1.16-.82q0-.56,1-.66a3.48,3.48,0,0,0,3-2.08,16.33,16.33,0,0,0,.86-6.27V109.05a12.08,12.08,0,0,0-.81-5.27,4.32,4.32,0,0,0-3.09-2l-1.73-.35c-.61-.14-.91-.38-.91-.72s.32-.72.95-.72a8,8,0,0,1,1.26.12,49.9,49.9,0,0,0,5.63.23l1.3,0,2.64-.07c.7,0,1.31,0,1.82,0,.94-.09,1.5-.14,1.69-.14.56,0,.85.19.85.65s-.29.6-.85.83a5.15,5.15,0,0,0-2.79,2.16,12.88,12.88,0,0,0-.58,4.8v13.71c0,.49.1.74.31.74l.56-.39.53-.42,15.09-13.51q3.48-3.09,3.48-5c0-1.08-.85-1.77-2.54-2.07-1.07-.16-1.61-.46-1.61-.9s.36-.72,1.09-.72c.21,0,.53,0,.95,0,1,.08,2.09.11,3.31.11l3.24.08,2.65,0a29.16,29.16,0,0,0,2.92-.09,9.15,9.15,0,0,1,1.09-.12q1,0,1,.69c0,.36-.54.69-1.68,1q-3.17.81-12.13,8.87l-12,10.89c-.51.47-.78.84-.8,1.12s.25.85.84,1.48l18.32,19.15a12.07,12.07,0,0,0,6.36,3.77l1.55.32q.81.17.81.69c0,.57-.37.83-1.09.79a6.4,6.4,0,0,1-.84-.08,26.27,26.27,0,0,0-3-.1c-1.4,0-2.42,0-3,.07s-1.23.07-1.61.07a2.76,2.76,0,0,1-2.07-.95l-.6-.67L371,127.63l-.71-.77a1.25,1.25,0,0,0-.84-.39Q368.77,126.47,368.77,127.28Z"/><path class="cls-1" d="M416.31,105.85V120a3.71,3.71,0,0,0,.3,2c.2.22.81.33,1.81.33h5.42a31.77,31.77,0,0,0,5.83-.42,4.76,4.76,0,0,0,2.47-1,7.23,7.23,0,0,0,1-2.95c.12-.59.42-.87.89-.85s.69.34.69,1c0,.16,0,.42,0,.77q-.31,3.4-.31,6.21c0,1.43.07,2.84.21,4.24,0,.47.07.81.07,1,0,.58-.23.88-.69.88a.84.84,0,0,1-.9-.78l-.21-1a4.62,4.62,0,0,0-1.68-3.2,8.08,8.08,0,0,0-4.28-.84h-7.75a4.9,4.9,0,0,0-2.3.35,1.5,1.5,0,0,0-.58,1.41l0,1.16v13c0,2,.36,3.24,1.08,3.73s2.52.74,5.42.74q13.8,0,17.73-6.22c.26-.4.53-.61.79-.63.43,0,.65.28.65.91,0,1.51-.86,3.33-2.57,5.43a9.66,9.66,0,0,1-7.8,3.78c-.68,0-1.6-.05-2.74-.14q-6.72-.63-11.11-.63a61,61,0,0,0-8.69.42,13,13,0,0,1-1.83.25c-.75,0-1.12-.26-1.12-.76s.3-.67.91-.83l1.34-.38c1.69-.47,2.53-2.12,2.53-4.93l0-2.29V109.93q0-5-1.11-6.78c-.74-1.16-2.18-1.75-4.31-1.75-.68,0-1-.21-1-.65,0-.64.53-1,1.58-1a22.5,22.5,0,0,1,2.36.17,109.4,109.4,0,0,0,12.09.57q4.29,0,7.6-.14l5-.25c1.38,0,2.23-.09,2.53-.14a9.57,9.57,0,0,1,1.41-.14c.77,0,1.16.34,1.16,1a4.14,4.14,0,0,1-.11.81c-.07.33-.16,1.26-.28,2.8l-.14,2.07a14.19,14.19,0,0,1-.36,2.54.79.79,0,0,1-.79.54c-.45,0-.68-.33-.68-1v-.92a5.55,5.55,0,0,0-.42-2.14,3.68,3.68,0,0,0-2.7-2.11,35,35,0,0,0-7.48-.53h-5.51a4.66,4.66,0,0,0-2.8.55A3.26,3.26,0,0,0,416.31,105.85Z"/><path class="cls-1" d="M490.23,113.81v29.47a38.27,38.27,0,0,1-.17,4.83.91.91,0,0,1-1,.83,1.25,1.25,0,0,1-.81-.32l-.77-.91-29.64-33.9-.35-.38a.67.67,0,0,0-.49-.21c-.45,0-.67.53-.67,1.58v23.86l0,1.48.1,2.5a5,5,0,0,0,1.2,3.2,7.29,7.29,0,0,0,3.72,1.3c.78.09,1.16.39,1.16.9s-.24.69-.74.69a8,8,0,0,1-1.05-.08q-.39-.06-3.06-.21l-3.58-.17-1.69.06a21.35,21.35,0,0,0-2.6.16,10.13,10.13,0,0,1-1.3.13c-.61,0-.94-.22-1-.65s.31-.63,1-.86a7.25,7.25,0,0,0,4-2.73,11.07,11.07,0,0,0,1-5.51V115c0-4.06-.64-7.25-1.93-9.59a7.27,7.27,0,0,0-5.59-4c-.63-.09-1-.35-1-.79s.26-.65.77-.65l.57,0,1.44,0,2.35.07.57,0,1.3,0a2.4,2.4,0,0,1,1.75,1l32.35,36.63c.51.59.84.87,1,.84s.37-.24.39-.66V120.42l0-4.74-.42-8.09a6.5,6.5,0,0,0-1.74-4.23c-.92-.84-2.59-1.45-5-1.85-.68-.11-1-.4-1-.86s.34-.65,1-.65c.31,0,.8,0,1.48.09a62.07,62.07,0,0,0,6.5.26,22.7,22.7,0,0,0,3.48-.21,10.22,10.22,0,0,1,1.73-.21c.61,0,.93.24,1,.74,0,.3-.21.52-.7.66a4.18,4.18,0,0,0-2.83,1.76,10.49,10.49,0,0,0-.69,4.61v3.79Z"/><path class="cls-1" d="M535.49,104h-9.87a3,3,0,0,0-2,.42,3.38,3.38,0,0,0-.4,2.08V141l0,1.37q.18,4.13,4.61,4.89c.82.14,1.23.41,1.23.79s-.33.76-1,.76a13.84,13.84,0,0,1-1.72-.21,27.55,27.55,0,0,0-3.17-.11l-2.57,0-2.75,0a24.79,24.79,0,0,0-2.5.11c-1.34.14-2.13.21-2.36.21-.71,0-1.06-.25-1.06-.75s.39-.6,1.16-.69c1.8-.24,3-.73,3.66-1.5s.95-2.13.95-4.1v-34.9l0-.91a2.34,2.34,0,0,0-.37-1.62,2.66,2.66,0,0,0-1.7-.35h-9.32a6.12,6.12,0,0,0-4.13,1.14,8.12,8.12,0,0,0-2,4.31c-.21.91-.53,1.35-1,1.33s-.63-.34-.63-.94a15.51,15.51,0,0,1,.42-2.7,21.28,21.28,0,0,0,.53-4.17,4,4,0,0,1,.37-2.12,1.85,1.85,0,0,1,1.56-.51h37.86q1.93,0,2.34.42a4.41,4.41,0,0,1,.41,2.49,19.36,19.36,0,0,0,.17,3c.12.79.19,1.36.22,1.71,0,.7-.23,1.08-.74,1.12s-.71-.34-.85-1.09a5.15,5.15,0,0,0-1.47-3.25C538.79,104.26,537.46,104,535.49,104Z"/><path class="cls-1" d="M589,128.07v-18.2c0-2.93-.42-5.05-1.27-6.38a5.32,5.32,0,0,0-4.29-2.26c-.68-.07-1-.32-1-.76s.24-.74.71-.72,1.26.12,2.24.28a20.84,20.84,0,0,0,3.19.21c2.62,0,4.23,0,4.84-.1.82-.07,1.33-.11,1.54-.11.45,0,.67.21.67.62s-.25.62-.74.83a4.63,4.63,0,0,0-2.78,2.46,18.65,18.65,0,0,0-.63,6v17.4q0,9.6-3.83,14.77a16.55,16.55,0,0,1-6.95,5.22,25.48,25.48,0,0,1-20.4-.37,15.34,15.34,0,0,1-7-6.29q-2.49-4.57-2.5-11.92V110.86l-.07-2q0-3.77-1-5.19c-.7-1-2.08-1.57-4.17-1.88-.63-.09-.95-.33-.95-.72,0-.55.45-.83,1.34-.83.58,0,1.39,0,2.42.07s1.87.11,2.36.11l2.71,0h2.67c.28,0,.93,0,2-.15.86-.07,1.46-.1,1.79-.1.54,0,.81.18.81.55s-.38.72-1.13.86a3.72,3.72,0,0,0-2.72,1.77,11.2,11.2,0,0,0-.69,4.72l.07,2.32v17.71q0,9.06,2.82,12.92,4,5.49,13.34,5.49,8.37,0,12.53-4.59T589,128.07Z"/><path class="cls-1" d="M643.39,104.43l1.12,8.44.11.87-.11.36a.65.65,0,0,1-.52.35c-.28,0-.71-.47-1.27-1.47q-6.59-11.51-17.84-11.5-9,0-14.14,5.51T605.56,122q0,11,5.76,18a18.32,18.32,0,0,0,14.79,7,21.23,21.23,0,0,0,10.38-2.82,16.29,16.29,0,0,0,7.08-6.84c.6-1.25,1.07-1.89,1.4-1.91s.56.2.56.67l0,.39-.14.78-.81,4.31-.14.64c-.09.61-.65,1.24-1.65,1.89a32.65,32.65,0,0,1-17.9,5.17q-11.31,0-18.24-6.71t-6.93-17.67q0-11,7.17-18.21a24.25,24.25,0,0,1,18-7.26,28.33,28.33,0,0,1,13.64,3.34l1.41.74.56.25.6.21a1.05,1.05,0,0,0,.52-.29,2.57,2.57,0,0,1,1.06-.56C643,103.09,643.27,103.54,643.39,104.43Z"/><path class="cls-1" d="M661.66,127.28v12.87q0,4,1.08,5.34t5,1.93c.68.12,1,.37,1,.74s-.26.69-.84.67l-1.9-.14c-.77-.07-2.17-.11-4.18-.11l-2.82,0-2.49.07c-1,0-1.63,0-1.94,0-1.24.12-1.94.18-2.11.18-.77,0-1.16-.27-1.16-.82q0-.56,1-.66a3.45,3.45,0,0,0,3-2.08,16.09,16.09,0,0,0,.87-6.27V109.05a12.08,12.08,0,0,0-.81-5.27,4.32,4.32,0,0,0-3.1-2l-1.72-.35c-.61-.14-.91-.38-.91-.72s.31-.72,1-.72a8,8,0,0,1,1.26.12,49.9,49.9,0,0,0,5.63.23l1.3,0,2.63-.07q1.07,0,1.83,0c.94-.09,1.5-.14,1.69-.14.56,0,.84.19.84.65s-.28.6-.84.83a5.12,5.12,0,0,0-2.79,2.16,12.88,12.88,0,0,0-.58,4.8v13.71c0,.49.1.74.31.74l.56-.39.53-.42,15.08-13.51q3.48-3.09,3.48-5c0-1.08-.84-1.77-2.53-2.07-1.08-.16-1.61-.46-1.61-.9s.36-.72,1.09-.72c.21,0,.52,0,.95,0,1,.08,2.09.11,3.31.11l3.24.08,2.64,0c1.48,0,2.46,0,2.93-.09a9.15,9.15,0,0,1,1.09-.12q.94,0,1,.69c0,.36-.54.69-1.68,1q-3.17.81-12.13,8.87l-12,10.89a2.22,2.22,0,0,0-.81,1.12c0,.36.26.85.85,1.48l18.31,19.15a12.13,12.13,0,0,0,6.37,3.77l1.54.32q.81.17.81.69c0,.57-.36.83-1.08.79a6.4,6.4,0,0,1-.84-.08,26.27,26.27,0,0,0-3-.1c-1.4,0-2.42,0-3,.07s-1.24.07-1.61.07a2.74,2.74,0,0,1-2.07-.95l-.6-.67-18.88-19.44-.7-.77a1.25,1.25,0,0,0-.84-.39Q661.66,126.47,661.66,127.28Z"/><path class="cls-1" d="M719.26,141.16c0,2.72.22,4.39.66,5s1.73,1,3.84,1.23c.72.07,1.09.31,1.09.72s-.41.83-1.24.83c-.25,0-.87-.06-1.83-.18-.59-.07-1.44-.14-2.57-.21l-2.78-.14-2.75.08c-1.74,0-2.9,0-3.49.11a10.55,10.55,0,0,1-1.34.16c-.54,0-.81-.19-.81-.58s.39-.75,1.16-.86c2-.28,3.22-.8,3.75-1.57s.79-2.4.79-4.91l0-1.51v-10.5a12.7,12.7,0,0,0-.31-3.31,14.07,14.07,0,0,0-1.55-3l-9.81-15.6L700.91,105a7.77,7.77,0,0,0-2.89-2.7,7.55,7.55,0,0,0-3.69-1q-1,0-1-.63c0-.51.36-.77,1.09-.77a15.77,15.77,0,0,1,1.79.11,40.57,40.57,0,0,0,4.77.27q5.16,0,6.6-.15c1-.11,1.64-.16,1.85-.16.68,0,1,.23,1,.68s-.27.6-.81.76c-1.57.47-2.35,1.27-2.35,2.39a8.6,8.6,0,0,0,1.52,3.38l1,1.7,7.39,11.62.46.7c.21.33.43.49.64.49a.94.94,0,0,0,.73-.49l.35-.52,5.09-7.72,1.72-2.74q2.45-3.9,2.45-5.23,0-2.36-4.43-3.4c-.59-.15-.87-.41-.85-.81s.3-.6.82-.6a14.9,14.9,0,0,1,1.86.19,43.24,43.24,0,0,0,4.94.16c2.39,0,3.92,0,4.58-.1.89-.1,1.51-.16,1.87-.18.63,0,1,.16,1,.62s-.3.64-.88.82a10.23,10.23,0,0,0-5.21,3.94L730,109l-8.54,12.75-.85,1.19a6.22,6.22,0,0,0-1.33,3.49Z"/><path class="cls-1" d="M310.18,205.13l11.26,26.64q1.85,4.44,2.69,4.44c.49,0,1.1-.86,1.85-2.59.22-.56.69-1.6,1.4-3.1q7.38-16.38,13.74-33.08t6.35-19.68q0-2.64-4.77-3.66c-1.76-.4-2.64-1-2.64-1.81s.54-1.16,1.63-1.16c.19,0,.53,0,1,.06q2.37.17,6.76.16a71.32,71.32,0,0,0,7.66-.3,24,24,0,0,1,2.64-.26A1.08,1.08,0,0,1,361,172c0,.67-.54,1.22-1.63,1.66A6.17,6.17,0,0,0,356,177l-3.09,6.68q-1.91,4.17-5.95,13.6-4.16,9.94-6.35,14.89l-6.74,15.23-4.49,10.62-2.69,6.13L325.4,247l-.84,1.69c-1,2.06-1.93,3.09-2.89,3.09s-1.61-.9-2.39-2.69l-14-32.54-14.06,33.49c-.67,1.61-1.35,2.39-2.06,2.36q-1.44-.06-3.22-4.39l-23.19-55.51-1.46-3.71q-3-7.65-5.31-10.62a9.77,9.77,0,0,0-5.75-3.77l-2.3-.5a1.33,1.33,0,0,1-1.18-1.38c0-.88.56-1.32,1.69-1.32a13.23,13.23,0,0,1,1.4.11,45.46,45.46,0,0,0,5.63.28l6.92.06,4.73-.11c1.91-.15,3.08-.23,3.49-.23,1,0,1.52.46,1.52,1.38,0,.7-.41,1.17-1.24,1.43-2.36.68-3.53,1.76-3.53,3.26q0,2.76,4.08,12.16,1.9,4.26,6,14.57,4,10,5.7,13.84l5.49,12.15q.89,2,1.23,2.7l.67,1.18c.41.82.72,1.23.95,1.23s.65-.59,1.18-1.79l.28-.68,9.64-22.59c-.79-1.88-1.26-3-1.4-3.38l-5-11.71-4.66-10.92q-2.64-6-4.05-7.6a6.76,6.76,0,0,0-4.43-2q-4.61-.6-4.49-2c0-.73.82-1.1,2.36-1.1l2.19.06,10.92.33a55.35,55.35,0,0,0,5.57-.33c1.24-.12,2.05-.17,2.42-.17,1.32,0,2,.44,2,1.32,0,.59-.61,1.12-1.85,1.6a3.77,3.77,0,0,0-2.7,3.6c0,1.43.68,3.74,2,6.93l5.94,14.08c.49-1.16.87-2,1.13-2.59q6.47-14.42,6.47-18.76,0-2.58-3.71-3.26c-1.79-.33-2.69-.94-2.69-1.82s.65-1.1,2-1.1l2.18.09c1.64.09,3.57.13,5.77.13a50.19,50.19,0,0,0,5.48-.22c1.09-.11,1.85-.17,2.3-.17q1.68,0,1.68,1.32c0,.62-.65,1.12-2,1.49a5.87,5.87,0,0,0-3.11,2,50.18,50.18,0,0,0-3.57,7.42Z"/><path class="cls-1" d="M381.47,180.47v22.65c0,1.73.16,2.77.48,3.13s1.28.54,2.89.54h8.65a50.5,50.5,0,0,0,9.32-.68c2-.41,3.33-1,3.93-1.63s1.14-2.24,1.63-4.71c.19-.94.67-1.39,1.43-1.35s1.09.54,1.09,1.51q0,.39-.06,1.23c-.33,3.63-.5,6.93-.5,9.92a66.48,66.48,0,0,0,.34,6.78c.07.74.11,1.28.11,1.62,0,.93-.36,1.4-1.09,1.4a1.35,1.35,0,0,1-1.44-1.23l-.33-1.58c-.45-2.5-1.35-4.21-2.69-5.11s-3.63-1.35-6.84-1.35H386a7.85,7.85,0,0,0-3.67.57,2.41,2.41,0,0,0-.93,2.25l.06,1.85V237q0,4.78,1.71,6c1.14.78,4,1.18,8.66,1.18q22,0,28.32-9.94c.42-.64.84-1,1.27-1,.69,0,1,.44,1,1.45q0,3.65-4.1,8.68a15.45,15.45,0,0,1-12.46,6c-1.09,0-2.55-.08-4.38-.23q-10.72-1-17.75-1a96.59,96.59,0,0,0-13.87.68,19.58,19.58,0,0,1-2.92.39c-1.2,0-1.79-.4-1.79-1.21,0-.62.48-1.06,1.46-1.32l2.13-.61q4-1.12,4-7.88l.06-3.65V187c0-5.37-.59-9-1.77-10.83s-3.47-2.78-6.88-2.78c-1.09,0-1.63-.35-1.63-1,0-1,.85-1.54,2.53-1.54a35.33,35.33,0,0,1,3.76.28,176.82,176.82,0,0,0,19.32.9q6.85,0,12.13-.22l8-.4c2.21-.07,3.56-.15,4-.22a17.17,17.17,0,0,1,2.25-.23c1.24,0,1.85.55,1.85,1.63a5.85,5.85,0,0,1-.17,1.28c-.11.53-.26,2-.44,4.48l-.23,3.3a22.78,22.78,0,0,1-.57,4.06,1.27,1.27,0,0,1-1.26.86c-.73,0-1.09-.52-1.09-1.68v-1.46a8.88,8.88,0,0,0-.67-3.43,5.92,5.92,0,0,0-4.32-3.36q-3.24-.86-11.94-.85H387c-2.31,0-3.81.29-4.48.88S381.47,178.48,381.47,180.47Z"/><path class="cls-1" d="M456,170.17a26.48,26.48,0,0,1,10.16,1.74l3.88,1.63a2.47,2.47,0,0,0,1,.23,2.14,2.14,0,0,0,1.35-.56l.78-.68a.74.74,0,0,1,.62-.22c.94,0,1.41.88,1.41,2.75q0,1,.73,5.67l.89,5.78a21.65,21.65,0,0,1,.28,2.31q0,1.74-1.2,1.74c-.61,0-1.22-.9-1.83-2.71a18.84,18.84,0,0,0-8.2-10,25.19,25.19,0,0,0-13.8-3.94,14.72,14.72,0,0,0-10.1,3.57,11.37,11.37,0,0,0-4.06,8.91,13,13,0,0,0,2.64,8.15,14.87,14.87,0,0,0,5,4.27A140.77,140.77,0,0,0,459,203.67q20.75,6.79,20.75,22.28a21.76,21.76,0,0,1-7.64,17.17q-7.63,6.67-19.6,6.68a41,41,0,0,1-9.51-1.24,23.91,23.91,0,0,1-7.61-2.86,3.53,3.53,0,0,1-1.35-1.43,28.51,28.51,0,0,1-1-3.9c-.08-.3-.54-2-1.41-5.12a30.22,30.22,0,0,1-1.45-7.18c0-1.13.38-1.67,1.14-1.63s1.3,1,1.83,2.76a21.82,21.82,0,0,0,8.51,11.71,23.45,23.45,0,0,0,14.11,4.73,19.44,19.44,0,0,0,13.08-4.55A14,14,0,0,0,474.15,230a13.38,13.38,0,0,0-4.94-10.51q-2.52-2.19-14.58-6.24Q442.18,209.06,437,204t-5.19-13.24a18.49,18.49,0,0,1,6.77-14.81Q445.35,170.17,456,170.17Z"/><path class="cls-1" d="M508.6,233.22l0,2c0,4.5.43,7.17,1.3,8s3.67,1.24,8.43,1.24a59.72,59.72,0,0,0,18.25-2.5q7.74-2.5,9.87-6.6c.52-1,1-1.51,1.57-1.51s.88.37.84,1.11c-.15,2.47-1.36,5.17-3.65,8.12q-4.83,6.09-15.68,6.09c-1.2,0-2.59-.05-4.16-.16l-6.07-.45c-3.56-.26-7.33-.4-11.3-.4a82.85,82.85,0,0,0-11.58.68c-1.31.18-2.36.3-3.14.33-.94,0-1.41-.29-1.41-1s.51-1,1.53-1.32c2.6-.78,4.34-1.94,5.23-3.46s1.33-4.07,1.33-7.67l.05-2.59V182.82q0-7.47-6.06-8.71l-2.53-.51c-.9-.18-1.35-.55-1.35-1.1,0-.84.64-1.26,1.91-1.26.86,0,2,.08,3.53.23q3.81.33,8.57.33,5.16,0,9.36-.28l2.41-.11c.9,0,1.34.27,1.34.82q0,1.22-1.62,1.59l-2,.45q-5.06,1.24-5,10.07Z"/><path class="cls-1" d="M572.36,180.47v22.65c0,1.73.16,2.77.47,3.13s1.29.54,2.9.54h8.64a50.42,50.42,0,0,0,9.32-.68c2-.41,3.34-1,3.94-1.63s1.14-2.24,1.62-4.71c.2-.94.67-1.39,1.44-1.35s1.09.54,1.09,1.51q0,.39-.06,1.23c-.33,3.63-.5,6.93-.5,9.92a66.48,66.48,0,0,0,.34,6.78c.07.74.11,1.28.11,1.62,0,.93-.37,1.4-1.09,1.4a1.33,1.33,0,0,1-1.44-1.23l-.33-1.58c-.45-2.5-1.35-4.21-2.69-5.11s-3.63-1.35-6.84-1.35H576.9a7.85,7.85,0,0,0-3.67.57,2.41,2.41,0,0,0-.93,2.25l.06,1.85V237q0,4.78,1.71,6c1.14.78,4,1.18,8.66,1.18q22,0,28.32-9.94c.42-.64.84-1,1.26-1,.69,0,1,.44,1,1.45q0,3.65-4.1,8.68a15.47,15.47,0,0,1-12.47,6c-1.08,0-2.54-.08-4.38-.23q-10.73-1-17.74-1a96.59,96.59,0,0,0-13.87.68,19.74,19.74,0,0,1-2.92.39c-1.2,0-1.8-.4-1.8-1.21,0-.62.49-1.06,1.46-1.32l2.14-.61q4-1.12,4-7.88l.06-3.65V187c0-5.37-.59-9-1.77-10.83s-3.48-2.78-6.88-2.78c-1.09,0-1.63-.35-1.63-1,0-1,.84-1.54,2.53-1.54a35.33,35.33,0,0,1,3.76.28,176.76,176.76,0,0,0,19.31.9q6.85,0,12.13-.22l8-.4c2.21-.07,3.55-.15,4-.22a17.17,17.17,0,0,1,2.25-.23c1.23,0,1.85.55,1.85,1.63a6.54,6.54,0,0,1-.17,1.28c-.11.53-.26,2-.45,4.48l-.22,3.3a21.5,21.5,0,0,1-.58,4.06,1.27,1.27,0,0,1-1.26.86q-1.08.06-1.08-1.68v-1.46a9.07,9.07,0,0,0-.67-3.43,5.94,5.94,0,0,0-4.32-3.36q-3.26-.86-11.94-.85h-8.8c-2.32,0-3.81.29-4.48.88S572.36,178.48,572.36,180.47Z"/><path class="cls-1" d="M656.78,236.87q0,6.52,1.07,8c.71,1,2.75,1.63,6.12,2,1.16.11,1.74.5,1.74,1.15,0,.88-.66,1.32-2,1.32-.41,0-1.39-.09-2.93-.28-.93-.11-2.3-.22-4.1-.33l-4.45-.23-4.39.13a54.23,54.23,0,0,0-5.57.18,17.59,17.59,0,0,1-2.14.25q-1.29,0-1.29-.93c0-.73.62-1.19,1.85-1.37q4.72-.68,6-2.5c.84-1.22,1.27-3.84,1.27-7.85l0-2.42V217.18a20.37,20.37,0,0,0-.5-5.28,21.58,21.58,0,0,0-2.47-4.78L629.38,182.2l-1.91-3.09a12.4,12.4,0,0,0-4.6-4.3,12,12,0,0,0-5.9-1.66c-1.09,0-1.63-.34-1.63-1s.58-1.24,1.74-1.24a23.54,23.54,0,0,1,2.86.19,64.22,64.22,0,0,0,7.62.43q8.24,0,10.53-.25c1.65-.17,2.64-.25,3-.25,1.09,0,1.63.36,1.63,1.09,0,.55-.43.95-1.29,1.21q-3.76,1.13-3.77,3.82,0,1.47,2.43,5.4l1.58,2.71,11.81,18.56.73,1.12c.34.53.68.79,1,.79a1.53,1.53,0,0,0,1.18-.79l.55-.84,8.12-12.33,2.75-4.37q3.91-6.22,3.92-8.35,0-3.76-7.08-5.44c-.93-.22-1.38-.66-1.34-1.29s.46-1,1.29-1a25.93,25.93,0,0,1,3,.31,71,71,0,0,0,7.88.25q5.74,0,7.32-.16c1.42-.15,2.42-.25,3-.28,1-.08,1.52.25,1.52,1s-.47,1-1.4,1.32a16.27,16.27,0,0,0-8.31,6.3l-3.65,5.45-13.65,20.36-1.35,1.91a10,10,0,0,0-2.13,5.57Z"/><path class="cls-1" d="M728.18,219H707.85c-2.77,0-4.49.22-5.17.67s-1.57,2-2.69,4.5l-3.68,8.27c-1.67,3.79-2.5,6.61-2.5,8.44a4.91,4.91,0,0,0,1.32,3.83c.88.79,2.61,1.46,5.2,2,1.12.22,1.7.65,1.74,1.31s-.49.93-1.57.93c-.41,0-1,0-1.91-.06l-5.37-.32q-2.7-.12-6.22-.12c-1.08,0-1.92,0-2.52.08-1.9.2-3,.31-3.14.31-1,0-1.51-.35-1.51-1a1.19,1.19,0,0,1,1-1.21l2.07-.61c.75-.23,1.76-1.14,3-2.73a25.69,25.69,0,0,0,3.14-5l1.63-3.71,28.86-64.12c.49-1.12,1-1.68,1.63-1.68s1.1.54,1.51,1.63l24.15,61.86,1.24,3c1.76,4.54,3.21,7.36,4.38,8.46s3.51,2,7.07,2.62c1.16.22,1.72.68,1.69,1.37s-.57.93-1.58.93c-.33,0-1,0-2.13-.11q-2.93-.28-10.39-.28a79.59,79.59,0,0,0-9.77.34,11.5,11.5,0,0,1-1.74.22c-1,0-1.46-.38-1.46-1.15,0-.59.47-1,1.4-1.15l1.74-.4c1.88-.37,2.81-1.65,2.81-3.82q0-3-3.42-11.88l-2.81-7.42c-.79-2.07-1.4-3.25-1.85-3.58S730.27,219,728.18,219Zm.67-9L720,187.75l-.45-1.18c-.45-1.2-.94-1.82-1.46-1.85-.27,0-.56.32-.9,1.06l-11,24.32a6.61,6.61,0,0,0-.73,2.08c0,1,.86,1.46,2.58,1.46l1.52.05h17c1.87,0,2.8-.46,2.8-1.4a4.91,4.91,0,0,0-.28-1.29Z"/><path class="cls-1" d="M830.52,193.2v47.05a59.48,59.48,0,0,1-.28,7.72,1.43,1.43,0,0,1-1.58,1.32,1.9,1.9,0,0,1-1.29-.5l-1.23-1.46L778.8,193.2l-.56-.62a1.08,1.08,0,0,0-.79-.34c-.71,0-1.06.84-1.06,2.53v38.11l-.06,2.36.17,4q.39,3.7,1.91,5.11t6,2.08c1.23.15,1.85.62,1.85,1.43s-.39,1.1-1.18,1.1a12.76,12.76,0,0,1-1.68-.12q-.61-.1-4.89-.33l-5.72-.28-2.7.1a32.25,32.25,0,0,0-4.15.25,17,17,0,0,1-2.08.21c-1,0-1.5-.35-1.57-1s.48-1,1.57-1.38c3.14-1.08,5.27-2.53,6.37-4.35s1.66-4.75,1.66-8.8V195q0-9.72-3.09-15.31a11.61,11.61,0,0,0-8.93-6.38c-1-.15-1.51-.57-1.51-1.26s.41-1,1.23-1c.19,0,.49,0,.9,0l2.3.06,3.76.11.9-.05c.9,0,1.59-.06,2.08-.06a3.87,3.87,0,0,1,2.81,1.63L824,231.27c.82.93,1.34,1.38,1.57,1.35s.58-.4.62-1.07v-27.8l.05-7.58-.67-12.91q-.56-4.77-2.78-6.77t-8-3c-1.09-.18-1.63-.64-1.63-1.37s.54-1,1.63-1c.48,0,1.27.05,2.36.15q3.87.41,10.39.41a35.4,35.4,0,0,0,5.55-.34,16.56,16.56,0,0,1,2.76-.33c1,0,1.49.39,1.57,1.18,0,.48-.34.84-1.13,1.06q-3.42.84-4.52,2.81t-1.09,7.36v6.06Z"/><path class="cls-1" d="M429.26,276.43l1.13,8.44.1.87-.1.36a.68.68,0,0,1-.53.35c-.28,0-.7-.47-1.27-1.48q-6.57-11.49-17.84-11.5-9,0-14.14,5.52T391.43,294q0,11,5.76,18A18.33,18.33,0,0,0,412,319a21.29,21.29,0,0,0,10.39-2.82,16.22,16.22,0,0,0,7.07-6.85c.61-1.24,1.08-1.88,1.4-1.9s.57.2.57.67l0,.39-.14.78-.81,4.31-.14.64c-.09.6-.64,1.24-1.65,1.89a32.62,32.62,0,0,1-17.9,5.17q-11.31,0-18.24-6.71t-6.93-17.67q0-11,7.17-18.21a24.25,24.25,0,0,1,18-7.26,28.33,28.33,0,0,1,13.64,3.34l1.41.74.56.24.6.22a1.07,1.07,0,0,0,.53-.29,2.5,2.5,0,0,1,1-.56C428.9,275.09,429.15,275.54,429.26,276.43Z"/><path class="cls-1" d="M462.92,271.4q11,0,18.06,6.8t7,17.41q0,11.24-7.11,18.44t-18.17,7.2q-11.36,0-18.37-6.88t-7-18.06a26.4,26.4,0,0,1,1.84-9.61,23.16,23.16,0,0,1,5-8,23.59,23.59,0,0,1,8.36-5.35A28.1,28.1,0,0,1,462.92,271.4Zm-2.26,2.29q-8.18,0-13,5.49T442.89,294q0,10.65,6.14,17.94t15.07,7.3a17.26,17.26,0,0,0,13.48-5.95q5.31-5.94,5.31-15.07,0-10.5-6.37-17.5A20.54,20.54,0,0,0,460.66,273.69Z"/><path class="cls-1" d="M504.67,310.87l0,1.23c0,2.82.27,4.49.81,5s2.3.78,5.28.78a37,37,0,0,0,11.42-1.57q4.85-1.56,6.18-4.13c.33-.63.66-.95,1-.95s.55.24.52.7a9.49,9.49,0,0,1-2.28,5.08q-3,3.83-9.82,3.82c-.75,0-1.62,0-2.6-.11l-3.8-.28q-3.35-.24-7.08-.24a52.34,52.34,0,0,0-7.25.42c-.82.12-1.48.19-2,.21s-.88-.18-.88-.62.32-.64,1-.82a5.35,5.35,0,0,0,3.27-2.17,10,10,0,0,0,.83-4.8l0-1.62V279.32q0-4.68-3.8-5.46l-1.58-.32c-.56-.11-.84-.34-.84-.68,0-.53.39-.79,1.19-.79.54,0,1.27.05,2.21.14q2.39.21,5.37.21,3.22,0,5.86-.18l1.5-.07c.57,0,.85.18.85.52,0,.5-.34.84-1,1l-1.23.28c-2.11.51-3.17,2.62-3.17,6.3Z"/><path class="cls-1" d="M544.59,310.87l0,1.23c0,2.82.27,4.49.81,5s2.3.78,5.28.78a37,37,0,0,0,11.42-1.57q4.85-1.56,6.18-4.13c.33-.63.66-.95,1-.95s.55.24.52.7a9.49,9.49,0,0,1-2.28,5.08q-3,3.83-9.82,3.82c-.75,0-1.62,0-2.6-.11l-3.81-.28c-2.23-.16-4.58-.24-7.07-.24a52.24,52.24,0,0,0-7.25.42c-.82.12-1.48.19-2,.21s-.88-.18-.88-.62.32-.64,1-.82a5.35,5.35,0,0,0,3.27-2.17,10,10,0,0,0,.83-4.8l0-1.62V279.32q0-4.68-3.8-5.46l-1.58-.32c-.56-.11-.84-.34-.84-.68,0-.53.39-.79,1.19-.79.54,0,1.27.05,2.21.14q2.39.21,5.37.21,3.23,0,5.86-.18l1.5-.07c.57,0,.85.18.85.52,0,.5-.34.84-1,1l-1.23.28c-2.11.51-3.17,2.62-3.17,6.3Z"/><path class="cls-1" d="M584.51,277.85V292a3.71,3.71,0,0,0,.3,2c.2.22.8.33,1.81.33H592a31.89,31.89,0,0,0,5.84-.42,4.68,4.68,0,0,0,2.46-1,7,7,0,0,0,1-2.95c.12-.59.42-.87.9-.85s.68.34.68.95c0,.17,0,.42,0,.77-.2,2.27-.31,4.34-.31,6.21,0,1.43.07,2.84.21,4.24.05.47.07.81.07,1,0,.59-.22.88-.68.88a.84.84,0,0,1-.9-.78l-.21-1a4.62,4.62,0,0,0-1.68-3.2,8.1,8.1,0,0,0-4.28-.84h-7.76a4.88,4.88,0,0,0-2.29.35,1.5,1.5,0,0,0-.58,1.41l0,1.16v13c0,2,.36,3.24,1.07,3.73s2.52.74,5.43.74q13.79,0,17.72-6.22c.27-.4.53-.61.8-.63.43,0,.64.28.64.91q0,2.28-2.56,5.43A9.68,9.68,0,0,1,599.8,321c-.68,0-1.59-.05-2.74-.14q-6.72-.63-11.11-.63a60.91,60.91,0,0,0-8.68.42,13,13,0,0,1-1.83.25c-.75,0-1.12-.26-1.12-.76s.3-.67.91-.83l1.34-.38c1.68-.47,2.53-2.12,2.53-4.93l0-2.29V281.93q0-5-1.11-6.78c-.73-1.16-2.17-1.75-4.3-1.75-.68,0-1-.21-1-.65,0-.64.53-1,1.58-1a22.68,22.68,0,0,1,2.36.17,109.4,109.4,0,0,0,12.09.57q4.29,0,7.59-.15l5-.24c1.38-.05,2.22-.1,2.53-.14a9.59,9.59,0,0,1,1.4-.14c.78,0,1.16.34,1.16,1a4,4,0,0,1-.1.81c-.07.33-.17,1.26-.28,2.8l-.14,2.07a14.19,14.19,0,0,1-.36,2.54.79.79,0,0,1-.79.54c-.45,0-.68-.33-.68-1.05v-.92a5.55,5.55,0,0,0-.42-2.14,3.71,3.71,0,0,0-2.71-2.11,34.87,34.87,0,0,0-7.47-.53H588a4.7,4.7,0,0,0-2.81.55A3.27,3.27,0,0,0,584.51,277.85Z"/><path class="cls-1" d="M655.51,308.53v-7.91a3.67,3.67,0,0,0-.93-2.92,7.08,7.08,0,0,0-3.75-1c-.91-.09-1.38-.39-1.4-.89s.37-.65,1.2-.65l1.4,0,2.65,0q5.43,0,6.31-.06c1.62-.12,2.56-.18,2.81-.18.54,0,.81.22.81.65s-.35.68-1.05.86q-2.67.64-2.67,3.88l0,1.12v11.28l.07,1.12-.21.53a2.28,2.28,0,0,1-1,.28,10.13,10.13,0,0,0-2.92,1.27l-2.32,1.37a28.87,28.87,0,0,1-14.73,4q-10.54,0-17.29-6.77t-6.75-17.31q0-11.07,7.15-18.46a23.91,23.91,0,0,1,17.91-7.38,35.38,35.38,0,0,1,8.81,1.2,25.54,25.54,0,0,1,7.44,3,1.42,1.42,0,0,0,.59.29,1.34,1.34,0,0,0,.67-.29l.84-.63a.78.78,0,0,1,.5-.21q.63,0,.63,1.65a20.38,20.38,0,0,0,.21,2.39l.35,3.31c.12.89.28,1.78.49,2.67a3.91,3.91,0,0,1,.18,1c0,.56-.23.85-.7.88q-.47,0-.78-.6A21.83,21.83,0,0,0,651.6,277a22.67,22.67,0,0,0-12.07-3.51,16.13,16.13,0,0,0-13,6q-5,6-5,15.58,0,10.26,5.79,17.15a18,18,0,0,0,14.32,6.9q8.16,0,12.76-5.77C655.13,312.4,655.51,310.8,655.51,308.53Z"/><path class="cls-1" d="M680.87,277.85V292a3.71,3.71,0,0,0,.3,2c.2.22.81.33,1.81.33h5.42a31.77,31.77,0,0,0,5.83-.42,4.68,4.68,0,0,0,2.46-1,7,7,0,0,0,1-2.95c.12-.59.42-.87.9-.85s.69.34.69.95c0,.17,0,.42,0,.77q-.32,3.4-.32,6.21a39.73,39.73,0,0,0,.22,4.24c0,.47.07.81.07,1,0,.59-.23.88-.69.88a.84.84,0,0,1-.9-.78l-.21-1a4.62,4.62,0,0,0-1.68-3.2,8.08,8.08,0,0,0-4.28-.84h-7.75a4.9,4.9,0,0,0-2.3.35,1.5,1.5,0,0,0-.58,1.41l0,1.16v13c0,2,.36,3.24,1.08,3.73s2.52.74,5.42.74q13.8,0,17.73-6.22c.26-.4.53-.61.79-.63.43,0,.65.28.65.91q0,2.28-2.57,5.43a9.66,9.66,0,0,1-7.8,3.78c-.68,0-1.6-.05-2.75-.14-4.47-.42-8.18-.63-11.1-.63a61,61,0,0,0-8.69.42,13,13,0,0,1-1.83.25c-.75,0-1.12-.26-1.12-.76s.3-.67.91-.83l1.34-.38c1.69-.47,2.53-2.12,2.53-4.93l0-2.29V281.93c0-3.36-.36-5.62-1.1-6.78s-2.18-1.75-4.31-1.75c-.68,0-1-.21-1-.65,0-.64.53-1,1.58-1A22.68,22.68,0,0,1,673,272a109.4,109.4,0,0,0,12.09.57q4.29,0,7.6-.15l5-.24c1.38-.05,2.23-.1,2.53-.14a9.57,9.57,0,0,1,1.41-.14c.77,0,1.16.34,1.16,1a4.14,4.14,0,0,1-.11.81c-.07.33-.16,1.26-.28,2.8l-.14,2.07a14.19,14.19,0,0,1-.36,2.54.79.79,0,0,1-.79.54c-.45,0-.68-.33-.68-1.05v-.92a5.55,5.55,0,0,0-.42-2.14,3.68,3.68,0,0,0-2.7-2.11,35,35,0,0,0-7.48-.53h-5.51a4.66,4.66,0,0,0-2.8.55A3.22,3.22,0,0,0,680.87,277.85Z"/><path class="cls-1" d="M513.08,368.74l2.52-.24a71.54,71.54,0,0,0,.2-8c0-4.16,0-5.6-.12-6.6l-2.56-.12v-.8c3.32,0,4.32,0,7.8-.16v.8l-2.32.16c0,.76-.16,2.8-.16,5.8v8.92l2.48.12v.76c-3.56,0-4.56,0-7.84.16Z"/><path class="cls-1" d="M537.8,354.1c-1.32,1-1.48,1-1.48,1.08s.36.2,1.76,1.16a7,7,0,0,1,3.4,6c0,4.08-3.2,7-7.56,7s-7.32-2.72-7.32-6.44a6.87,6.87,0,0,1,3.76-6.12c1.2-.68,1.44-.64,1.44-.84s-.12-.16-.28-.24c-2.52-1.28-4.28-3.32-4.28-6.28a6.49,6.49,0,0,1,6.88-6.68c4,0,6.72,2.68,6.72,6A6.64,6.64,0,0,1,537.8,354.1Zm-9.2,8.52c0,3,2,6,5.6,6,3.24,0,4.88-2.48,4.88-5.36,0-4-3-5.4-6.28-6.88A6.59,6.59,0,0,0,528.6,362.62ZM539,348.94c0-3.72-2.56-5.48-5-5.48-2.88,0-4.68,2.16-4.68,5.08s1.92,4.56,6,6.28A6.63,6.63,0,0,0,539,348.94Z"/><path class="cls-1" d="M547.2,378.22c4.36-1.56,8.6-3.92,8.6-8.76,0-4-2.8-6.08-7.92-6.36-1.2-.08-1.44,0-1.44-.28s.4-2.48.44-2.68l1.36-7.2c2.08,0,4.68.12,6.44.12s2.52,0,3.6-.12l.28-1.24.8.12-.4,3.36a18.45,18.45,0,0,1-4.44.32c-1.28,0-4.32-.16-5.4-.16-.48,0-.72,0-.76.32-.36,2.36-.64,4.52-.68,5.08,5.68,0,10.76,2,10.76,7.6s-5.32,8.88-11,10.68Z"/><path class="cls-1" d="M575.68,354.1c-1.32,1-1.48,1-1.48,1.08s.36.2,1.76,1.16a7,7,0,0,1,3.4,6c0,4.08-3.2,7-7.56,7s-7.32-2.72-7.32-6.44a6.87,6.87,0,0,1,3.76-6.12c1.2-.68,1.44-.64,1.44-.84s-.12-.16-.28-.24c-2.52-1.28-4.28-3.32-4.28-6.28a6.49,6.49,0,0,1,6.88-6.68c4,0,6.72,2.68,6.72,6A6.64,6.64,0,0,1,575.68,354.1Zm-9.2,8.52c0,3,2,6,5.6,6,3.24,0,4.88-2.48,4.88-5.36,0-4-3-5.4-6.28-6.88A6.59,6.59,0,0,0,566.48,362.62Zm10.44-13.68c0-3.72-2.56-5.48-5-5.48-2.88,0-4.68,2.16-4.68,5.08s1.92,4.56,6,6.28A6.63,6.63,0,0,0,576.92,348.94Z"/><line class="cls-2" x1="387.56" y1="355.95" x2="504.56" y2="355.95"/><line class="cls-2" x1="589.56" y1="355.95" x2="706.56" y2="355.95"/><polygon class="cls-3" points="98.01 166.49 94.9 157.99 131.81 157.99 195.88 182.66 195.67 178.72 135.75 154.88 92.42 155.09 28.56 181.83 28.14 184.12 30.21 192.41 35.19 193.65 98.01 166.49"/><path class="cls-3" d="M131.81,150.53v-7.67s-21-26-21.56-54.53l-11.2,8.29s-2.9,20.11-15.55,36.49c-10.16,13.15-26.54,24-33.59,27.37-6.06,2.85-9.12,3.11-9.12,3.11v7.67l51.42-20.73Z"/><path class="cls-3" d="M8.5,338.37a4.74,4.74,0,0,0,1.08,1.25l102.48-43.7V292.5L8.19,336.66A2.77,2.77,0,0,0,8.5,338.37Z"/><polygon class="cls-3" points="126.21 171.05 102.11 171.05 98.69 172.61 98.84 208.37 126.21 208.37 126.21 171.05"/><path class="cls-3" d="M116.09,284.14,125.9,288V211H98.84L99,287.84l7.69-2.77a10.2,10.2,0,1,1,9.4-.93Z"/><polygon class="cls-3" points="111.91 289.7 224.18 332 224.18 328.58 112.06 286.75 111.91 289.7"/><path class="cls-3" d="M35.09,229.92a3,3,0,0,0-2,1.57,13.4,13.4,0,0,0-.52,2.9l2.49.09Z"/><path class="cls-3" d="M40.06,319.09l70.6-29.23v-3.11l-16.48,5.6V213.07L83.29,217.6v-3l10.89-4.45v-36L40.06,198.42v32.32l11.1-4.53.1,2.79-11.2,4.74Zm17.73-11.57-6.22,2.55s0-6.48-.08-15.95l6.3-2.26Zm0-18.41-6.31,2.25c0-4.14,0-8.73-.07-13.54l6.38-2.29Zm0-16.26L51.4,275c0-4.24,0-8.59-.07-12.91l6.46-2.32Zm0-15.73-6.47,2.23c0-4.85,0-9.6-.08-14L57.79,243Zm6.07-44.86c4.35-1.71,6.68-1.09,8.7.93a6.77,6.77,0,0,1,1.5,3.68l-14.88,5.34C59.15,220.68,59.29,214.05,63.86,212.26ZM66,304.17l-6.32,2.59V291.19L66,288.93Zm0-18-6.32,2.25V274.86L66,272.6ZM66,270l-6.32,2.17V259.14L66,256.88Zm0-15.72-6.32,2.17V242.31L66,240.05Zm0-16.83-6.32,2.17V226.9L66,224.71Zm8.19,63.33-6.43,2.64V288.29l6.43-2.3Zm0-17.53-6.43,2.29V272l6.43-2.3Zm0-16.07-6.43,2.22V256.24l6.43-2.3Zm0-15.71-6.43,2.2V239.41l6.43-2.3Zm0-16.84-6.43,2.21V224.1l6.43-2.23ZM83.45,297l-7.52,3.08V285.36l7.52-2.7Zm0-17-7.52,2.68V269.1l-.36.13v-.07l.36-.13v.07l7.52-2.71Zm0-15.87-.06,0V264l-7.47,2.57V253.35l-.21.08v-.05l.21-.07v0l7.52-2.71Zm0-15.77,0,.55v-.54l-7.52,2.55V236.53l-.28.1v0l.28-.1v.05l7.52-2.72V248.3h0Zm-.12-29.66c.05.58.07,1.05.07,1.37v11.48l-.06,0v0l-7.47,2.57v-12.8ZM78.61,203c2.09,2.86,3.36,7.17,4.07,10.8l-5.88,2.11a33.76,33.76,0,0,0-2.06-4.79,34.92,34.92,0,0,0,2.54-4.8C78,204.75,78.52,203.24,78.61,203Zm-10.06-5.42a16.7,16.7,0,0,1,7.6,3c-.27.83-.88,2.63-1.57,4.35a26.26,26.26,0,0,1-2.43,4.38,14.82,14.82,0,0,0-4.26-1.1,21.17,21.17,0,0,0,.89-5.87C68.78,200.39,68.66,198.71,68.55,197.56Zm-7.81,1.79a12.7,12.7,0,0,1,4.71-1.73,33.87,33.87,0,0,1,.11,6.25c-.2,1.54-.61,3.57-.87,4.75a13.21,13.21,0,0,0-3.32,1.31,7.32,7.32,0,0,0-1.89,1.83c-1.39-1.07-4.64-3.56-5.73-4.16l-.09.15A16.83,16.83,0,0,1,60.74,199.35ZM51.11,225.1c0-.13,0-.27,0-.4a49.61,49.61,0,0,1,1.61-14.22,51.76,51.76,0,0,1,5.18,3.79,13.47,13.47,0,0,0-.57,1.26,26.25,26.25,0,0,0-1.08,7.31v.42Zm6.68,2.45v12.74l-6.56,2.26c0-4.83-.06-9.17-.09-12.69Z"/><polygon class="cls-1" points="59.66 306.76 65.98 304.17 65.98 288.93 59.66 291.19 59.66 306.76"/><polygon class="cls-1" points="59.66 288.45 65.98 286.19 65.98 272.6 59.66 274.86 59.66 288.45"/><polygon class="cls-1" points="59.66 256.48 65.98 254.31 65.98 240.05 59.66 242.31 59.66 256.48"/><polygon class="cls-1" points="59.66 272.2 65.98 270.03 65.98 256.88 59.66 259.14 59.66 272.2"/><polygon class="cls-1" points="59.66 239.65 65.98 237.48 65.98 224.71 59.66 226.9 59.66 239.65"/><polygon class="cls-1" points="67.74 285.57 74.17 283.27 74.17 269.66 67.74 271.96 67.74 285.57"/><polygon class="cls-1" points="67.74 303.45 74.17 300.81 74.17 285.99 67.74 288.3 67.74 303.45"/><polygon class="cls-1" points="67.74 253.7 74.17 251.5 74.17 237.11 67.74 239.41 67.74 253.7"/><polygon class="cls-1" points="67.74 236.87 74.17 234.66 74.17 221.87 67.74 224.1 67.74 236.87"/><polygon class="cls-1" points="67.74 269.43 74.17 267.21 74.17 253.94 67.74 256.24 67.74 269.43"/><path class="cls-1" d="M51.57,310.07l6.22-2.55V291.86l-6.3,2.26C51.54,303.59,51.57,310.07,51.57,310.07Z"/><path class="cls-1" d="M57.79,240.29V227.55l-6.65,2.31c0,3.52.06,7.86.09,12.69Z"/><path class="cls-1" d="M51.4,275l6.39-2.19v-13l-6.46,2.32C51.36,266.45,51.38,270.8,51.4,275Z"/><path class="cls-1" d="M51.32,259.35l6.47-2.23V243l-6.55,2.35C51.27,249.75,51.29,254.5,51.32,259.35Z"/><path class="cls-1" d="M51.48,291.36l6.31-2.25V275.53l-6.38,2.29C51.44,282.63,51.46,287.22,51.48,291.36Z"/><path class="cls-1" d="M75.93,234.06l7.47-2.57v0l.06,0V220c0-.32,0-.79-.07-1.37l-7.45,2.59Z"/><path class="cls-1" d="M83.45,233.81l-7.52,2.72v14.36l7.52-2.59Z"/><path class="cls-1" d="M75.93,300.09,83.45,297V282.66l-7.52,2.7Z"/><path class="cls-1" d="M75.93,282.65,83.45,280V266.39l-7.52,2.71Z"/><path class="cls-1" d="M75.93,266.61,83.4,264v.08l.06,0V250.64l-7.52,2.71Z"/><path class="cls-1" d="M56.24,222.84a26.25,26.25,0,0,1,1.08-7.31,13.47,13.47,0,0,1,.57-1.26,51.76,51.76,0,0,0-5.18-3.79A49.61,49.61,0,0,0,51.1,224.7c0,.13,0,.27,0,.4l5.13-1.84Z"/><path class="cls-1" d="M72.56,213.19c-2-2-4.35-2.64-8.7-.93-4.57,1.79-4.71,8.42-4.68,10l14.88-5.34A6.77,6.77,0,0,0,72.56,213.19Z"/><path class="cls-1" d="M76.8,215.89l5.88-2.11c-.71-3.63-2-7.94-4.07-10.8-.09.26-.62,1.77-1.33,3.32a34.92,34.92,0,0,1-2.54,4.8A33.76,33.76,0,0,1,76.8,215.89Z"/><path class="cls-1" d="M72.15,209.33A26.26,26.26,0,0,0,74.58,205c.69-1.72,1.3-3.52,1.57-4.35a16.7,16.7,0,0,0-7.6-3c.11,1.15.23,2.83.23,4.8a21.17,21.17,0,0,1-.89,5.87A14.82,14.82,0,0,1,72.15,209.33Z"/><path class="cls-1" d="M59.48,211.76a7.32,7.32,0,0,1,1.89-1.83,13.21,13.21,0,0,1,3.32-1.31c.26-1.18.67-3.21.87-4.75a33.87,33.87,0,0,0-.11-6.25,12.7,12.7,0,0,0-4.71,1.73,16.83,16.83,0,0,0-7.08,8.4l.09-.15C54.84,208.2,58.09,210.69,59.48,211.76Z"/><polygon class="cls-1" points="147.07 232.49 154.1 235.41 154.1 220.85 147.05 217.99 147.07 232.49"/><polygon class="cls-1" points="156.05 286.22 163.53 289.33 163.53 274.83 156.03 271.72 156.05 286.22"/><path class="cls-1" d="M162.81,211.33a24.09,24.09,0,0,1,2.9-2.54,16.18,16.18,0,0,1,3.25-1.64,17.67,17.67,0,0,0-5-5.72,19.75,19.75,0,0,0-7.14-3l-.45,9.28c.33.06.67.14,1,.22A11.82,11.82,0,0,1,162.81,211.33Z"/><polygon class="cls-1" points="147.09 249.03 154.1 251.94 154.1 237.9 147.07 234.98 147.09 249.03"/><polygon class="cls-1" points="147.11 265.53 154.1 268.43 154.1 254.43 147.1 251.52 147.11 265.53"/><polygon class="cls-1" points="147.14 282.52 154.1 285.41 154.1 270.92 147.12 268.02 147.14 282.52"/><polygon class="cls-1" points="156.03 269.23 163.53 272.34 163.53 258.35 156.01 255.23 156.03 269.23"/><path class="cls-1" d="M163.32,219.36a10,10,0,0,0-2.17-6.53,9.45,9.45,0,0,0-8.09-3.11c-4.72.27-5.61,4.66-5.77,5.89l16,6.55C163.31,221.56,163.32,220.68,163.32,219.36Z"/><path class="cls-1" d="M172.44,225.91c0-1.7-.23-10.39-1.44-14.17-.24-.72-.54-1.52-.9-2.33a12.77,12.77,0,0,0-2.32,1.09,17.35,17.35,0,0,0-3.52,2.9,13.1,13.1,0,0,1,.72,2.54,51.65,51.65,0,0,1,.61,7.16Z"/><polygon class="cls-1" points="165.42 240.11 172.55 243.07 172.55 228.35 165.4 225.44 165.42 240.11"/><path class="cls-1" d="M228.22,326.56a22.62,22.62,0,0,0-2.18-4.05l-14.8-5.92a10.19,10.19,0,1,0-14.31-5.72l-8.21-3.29-1.95-67.23a7.32,7.32,0,0,0,3.57-3.1c1-1.84.12-4.26-.52-5.61-.57-1.2-2.27-2.18-3.38-2.71l-.83-28.64,8.71-5.29s2.8-1.24,4.36-11.51a20.63,20.63,0,0,0-.32-7.46L185,170.68v-9.89s-9.64-.31-30.48-22.7c-18.8-20.21-27.81-32.07-28.13-38.31a31.62,31.62,0,0,1-.06-4.22L112.84,84.28l0-4a9.17,9.17,0,0,0-.13-17.89L112.22.93s0-.93-1.56-.93-1.87.31-1.87,1.24c0,.63-.27,37-.46,61.29a9.17,9.17,0,0,0-.13,17.67c0,2.39,0,3.77,0,3.77l-13.06,10s-.13,3.29-.31,5.91c-.15,2.18-10.26,24.88-21.46,36.39s-19.59,19-25.81,21.15A83.29,83.29,0,0,1,36,160.48l.31,12.75-12.75,5.6s-2.18,4.66-2.18,6.84c0,0,.62,7.46,3.42,11.2l10.27,2.48v29A5.66,5.66,0,0,0,31,233.88a5.29,5.29,0,0,0,4.05,5.44v73.55l-7.8,2.85a10,10,0,0,0,.52-3.17,10.2,10.2,0,1,0-15.52,8.69c-4.54,1.68-8.23,3.05-9.24,3.45-3.11,1.24-4,6.84-1.86,12.13s7.77,9.33,9,9,101.7-41.68,101.7-41.68v74H214.23V344s5.28,0,7.15-.31,5.29-3.42,6.53-7.15S229.46,329.36,228.22,326.56ZM188.1,232.32l.11,2.39-13.79-5.6.1,74.95-2-.72v-7.78l-7.06-2.93v8.22l-2-.73v-8.3l-7.47-3.11v9.13l-2-.72V287.9l-7-2.89v8.89l-2-.72v-9l-1.34-.56v-2.49l1.34.56v-14.5l-1.14-.47v-2.49l1.14.48v-14l-1.14-.47v-2.49l1.14.47V234.19l-1.76-.73V231l1.76.74V217.24l-1.14-.47v-2.49l1.1.45a21.78,21.78,0,0,1,1.18-3.45,6.76,6.76,0,0,1,2.46-2.45c-.74-1.13-3-4.58-3.8-5.85s-.9-1.35-.52-1.76c.57-.62.83-.06,1.76,1.14.78,1,3.12,4.56,3.89,5.74a4.62,4.62,0,0,1,.57-.24,8.84,8.84,0,0,1,3.55-.39l.37-9.33c-.44,0-.84,0-1.18,0-2.38.11-3.62.48-3.62-.62,0-1.45,2.69-1.45,3.26-1.45a22.48,22.48,0,0,1,9.64,2.17,20.37,20.37,0,0,1,9.59,11.25c2,5.67,2.08,14.13,2.18,17.28ZM40.79,163.59s3.06-.26,9.12-3.11c7.05-3.32,23.43-14.22,33.59-27.37,12.65-16.38,15.55-36.49,15.55-36.49l11.2-8.29c.52,28.56,21.56,54.53,21.56,54.53v7.67H92.21L40.79,171.26ZM30.21,192.41l-2.07-8.29.42-2.29,63.85-26.74,43.34-.21,59.92,23.84.21,3.94L131.81,158H94.9l3.11,8.5L35.19,193.65Zm80.29,73a10.2,10.2,0,0,0-3.81,19.65L99,287.84,98.84,211H125.9v77l-9.81-3.85a10.19,10.19,0,0,0-5.59-18.72ZM51.16,226.21l-11.1,4.53V198.42l54.12-24.26v36l-10.89,4.45v3l10.89-4.53v79.28l16.48-5.6v3.11l-70.6,29.23V233.74L51.26,229Zm47.68-17.84-.15-35.76,3.42-1.56h24.1v37.32Zm-66.24,26a13.4,13.4,0,0,1,.52-2.9,3,3,0,0,1,2-1.57v4.56Zm79.46,61.53L9.58,339.62a4.74,4.74,0,0,1-1.08-1.25,2.77,2.77,0,0,1-.31-1.71L112.06,292.5ZM224.18,332,111.91,289.7l.15-2.95,112.12,41.83Z"/><polygon class="cls-1" points="165.44 256.65 172.55 259.61 172.55 245.56 165.43 242.6 165.44 256.65"/><polygon class="cls-1" points="165.49 290.14 172.55 293.07 172.55 278.58 165.47 275.64 165.49 290.14"/><polygon class="cls-1" points="165.47 273.15 172.55 276.09 172.55 262.09 165.45 259.14 165.47 273.15"/><polygon class="cls-1" points="155.99 236.19 163.53 239.33 163.53 224.69 155.97 221.61 155.99 236.19"/><polygon class="cls-1" points="156.01 252.74 163.53 255.86 163.53 241.81 155.99 238.68 156.01 252.74"/></g></g></svg>